<svg width="310" height="265" viewBox="0 0 310 265" fill="none" xmlns="http://www.w3.org/2000/svg">
<path opacity="0.8" fill-rule="evenodd" clip-rule="evenodd" d="M-48.9657 0H-49.058L-49.1442 0.0329741L-93.8114 17.1116L-93.8887 17.1411L-93.9523 17.194L-145.626 60.1095L-146 60.42L-145.7 60.8026L81.0325 350.007V350.393V351.841L81.7514 350.924L82.4704 351.841V350.393V350.007L309.203 60.8026L309.503 60.42L309.129 60.1095L257.455 17.194L257.392 17.1411L257.314 17.1116L212.647 0.0329741L212.561 0H212.469H81.9704H81.5325H-48.9657ZM81.5325 1H-41.2665L81.7514 17.0458L204.769 1H81.9704H81.5325ZM82.4704 98.4501V18.655L159.705 60.4727L82.4704 98.4501ZM82.4704 347.283V99.9684H201.164L82.4704 347.283ZM81.0325 18.655L3.79771 60.4727L81.0325 98.4501V18.655ZM81.0325 99.9684H-37.6612L81.0325 347.283V99.9684ZM-90.9251 17.0786L-48.9051 1.01214L74.2712 17.0786H-90.9251ZM-91.2816 18.0786H79.9967L2.68657 59.9372L-91.2816 18.0786ZM-143.922 59.9941H0.356842L-93.5524 18.1618L-143.922 59.9941ZM79.5375 346.479L-143.832 61.564L-38.8184 99.8683L79.5375 346.479ZM-37.2004 98.9684H79.8204L2.79939 61.0962L-37.2004 98.9684ZM1.45274 60.9941L-38.575 98.8927L-142.477 60.9941H1.45274ZM254.428 17.0786L212.408 1.01214L89.2317 17.0786H254.428ZM254.784 18.0786H83.5061L160.816 59.9372L254.784 18.0786ZM307.425 59.9941H163.146L257.055 18.1618L307.425 59.9941ZM83.9653 346.479L307.335 61.564L202.321 99.8683L83.9653 346.479ZM200.703 98.9684H83.6825L160.703 61.0962L200.703 98.9684ZM162.05 60.9941L202.078 98.8927L305.98 60.9941H162.05Z" fill="#EEEEEE"/>
</svg>
