<svg width="12" height="16" viewBox="0 0 12 16" fill="none" xmlns="http://www.w3.org/2000/svg">
<path d="M5.99995 0C2.80479 0 0.205353 2.59944 0.205353 5.79456C0.205353 9.75981 5.39095 15.581 5.61173 15.8269C5.8191 16.0579 6.18117 16.0575 6.38817 15.8269C6.60895 15.581 11.7945 9.75981 11.7945 5.79456C11.7945 2.59944 9.19507 0 5.99995 0ZM5.99995 8.70997C4.39238 8.70997 3.08457 7.40213 3.08457 5.79456C3.08457 4.187 4.39242 2.87919 5.99995 2.87919C7.60748 2.87919 8.91529 4.18703 8.91529 5.79459C8.91529 7.40216 7.60748 8.70997 5.99995 8.70997Z" fill="#303030"/>
</svg>
