<svg width="180" height="37" viewBox="0 0 180 37" fill="none" xmlns="http://www.w3.org/2000/svg">
<rect width="180" height="37" fill="#484848"/>
<rect width="1920" height="3745" transform="translate(-870 -23)" fill="white"/>
<path d="M12.312 27.64C9.98667 27.64 7.94933 27.0747 6.2 25.944C4.45067 24.8133 3.096 23.2347 2.136 21.208C1.19733 19.1813 0.728 16.8453 0.728 14.2C0.728 11.5547 1.22933 9.21867 2.232 7.192C3.23467 5.16533 4.632 3.58667 6.424 2.456C8.23733 1.32533 10.3067 0.759998 12.632 0.759998C14.8293 0.759998 16.6853 1.31467 18.2 2.424L20.152 0.759998H20.824V8.696H20.152L18.04 3.416C16.504 2.136 14.7013 1.496 12.632 1.496C11.1387 1.496 9.79467 1.88 8.6 2.648C7.42667 3.416 6.49867 4.536 5.816 6.008C5.15467 7.48 4.824 9.22933 4.824 11.256V17.112C4.824 19.1387 5.13333 20.888 5.752 22.36C6.392 23.832 7.26667 24.9627 8.376 25.752C9.50667 26.52 10.8187 26.904 12.312 26.904C14.1467 26.904 15.5653 26.3387 16.568 25.208C17.592 24.0773 18.104 22.5627 18.104 20.664V17.688L15.128 17.24V16.536H24.696V17.24L21.72 17.688V20.664C21.72 21.88 21.3893 23.0213 20.728 24.088C20.0667 25.1333 19.032 25.9867 17.624 26.648C16.216 27.3093 14.4453 27.64 12.312 27.64ZM34.3828 27.32C32.8468 27.32 31.4494 26.968 30.1908 26.264C28.9321 25.5387 27.9294 24.5253 27.1828 23.224C26.4574 21.9013 26.0948 20.3973 26.0948 18.712C26.0948 17.0267 26.4574 15.5333 27.1828 14.232C27.9294 12.9307 28.9321 11.928 30.1908 11.224C31.4494 10.4987 32.8468 10.136 34.3828 10.136C35.9188 10.136 37.3161 10.4987 38.5748 11.224C39.8334 11.928 40.8254 12.9307 41.5508 14.232C42.2974 15.5333 42.6708 17.0267 42.6708 18.712C42.6708 20.3973 42.2974 21.9013 41.5508 23.224C40.8254 24.5253 39.8334 25.5387 38.5748 26.264C37.3161 26.968 35.9188 27.32 34.3828 27.32ZM34.3828 26.616C35.9614 26.616 37.1454 26.04 37.9348 24.888C38.7454 23.736 39.1508 22.2107 39.1508 20.312V17.112C39.1508 15.2133 38.7454 13.6987 37.9348 12.568C37.1454 11.416 35.9614 10.84 34.3828 10.84C32.8041 10.84 31.6094 11.416 30.7988 12.568C30.0094 13.6987 29.6148 15.2133 29.6148 17.112V20.312C29.6148 22.2107 30.0094 23.736 30.7988 24.888C31.6094 26.04 32.8041 26.616 34.3828 26.616ZM44.6713 27V26.36L47.0713 26.04V2.36L44.6713 2.04V1.4H50.2713V26.04L52.5113 26.36V27H44.6713ZM62.2115 27.32C60.6968 27.32 59.3635 26.968 58.2115 26.264C57.0595 25.5387 56.1635 24.536 55.5235 23.256C54.8835 21.9547 54.5635 20.44 54.5635 18.712C54.5635 16.984 54.8835 15.48 55.5235 14.2C56.1635 12.8987 57.0595 11.896 58.2115 11.192C59.3635 10.488 60.6968 10.136 62.2115 10.136C63.4488 10.136 64.5262 10.4667 65.4435 11.128C66.3608 11.768 67.0862 12.6533 67.6195 13.784V2.36L65.3795 2.04V1.4H70.8195V26.04L73.0595 26.36V27H67.6195V23.672C67.0862 24.8027 66.3608 25.6987 65.4435 26.36C64.5262 27 63.4488 27.32 62.2115 27.32ZM62.5315 26.52C63.4702 26.52 64.3128 26.2533 65.0595 25.72C65.8275 25.1653 66.4355 24.44 66.8835 23.544C67.3528 22.6267 67.5982 21.6347 67.6195 20.568V16.888C67.5982 15.8213 67.3528 14.84 66.8835 13.944C66.4355 13.0267 65.8275 12.3013 65.0595 11.768C64.3128 11.2133 63.4702 10.936 62.5315 10.936C59.5662 10.936 58.0835 12.9947 58.0835 17.112V20.312C58.0835 24.4507 59.5662 26.52 62.5315 26.52ZM77.4948 36.344C76.3854 36.344 75.4894 36.0667 74.8068 35.512C74.1241 34.9573 73.7828 34.2107 73.7828 33.272C73.7828 32.632 73.9641 32.1093 74.3268 31.704C74.7108 31.32 75.1801 31.128 75.7348 31.128C76.1401 31.128 76.5028 31.2133 76.8228 31.384C77.1428 31.5547 77.3988 31.8107 77.5908 32.152C77.2708 32.6 77.1108 33.0693 77.1108 33.56C77.1108 33.9867 77.2494 34.3387 77.5268 34.616C77.8041 34.8933 78.1561 35.032 78.5828 35.032C79.0948 35.032 79.5321 34.8613 79.8948 34.52C80.2788 34.1787 80.6201 33.5813 80.9188 32.728L82.8388 27.224L75.4148 11.416L73.2707 11.096V10.456H81.2388V11.096L78.9988 11.48L84.3428 22.904L88.1508 11.896L85.3988 11.096V10.456H91.1588V11.096L88.9828 11.896L81.8148 32.728C81.3668 33.9867 80.8228 34.904 80.1828 35.48C79.5641 36.056 78.6681 36.344 77.4948 36.344Z" fill="#E1A661"/>
<path d="M109.924 27.64C107.94 27.64 105.988 27.0747 104.068 25.944L101.348 27.32H100.644V19.096H101.348L104.1 25.048C105.871 26.3067 107.897 26.936 110.18 26.936C112.057 26.936 113.604 26.4453 114.82 25.464C116.057 24.4613 116.676 23.064 116.676 21.272C116.676 19.9707 116.281 18.9467 115.492 18.2C114.703 17.432 113.423 16.824 111.652 16.376L106.34 15C104.484 14.5093 103.087 13.6773 102.148 12.504C101.209 11.3093 100.74 9.90133 100.74 8.28C100.74 6.808 101.028 5.50667 101.604 4.376C102.201 3.224 103.065 2.33867 104.196 1.72C105.327 1.08 106.671 0.759998 108.228 0.759998C110.169 0.759998 111.908 1.09067 113.444 1.752L115.78 0.759998H116.484V7.288H115.78L113.476 2.616C111.876 1.848 110.137 1.464 108.26 1.464C106.404 1.464 104.943 1.944 103.876 2.904C102.809 3.84267 102.276 5.09067 102.276 6.648C102.276 7.8 102.649 8.70667 103.396 9.368C104.164 10.0293 105.284 10.552 106.756 10.936L112.484 12.44C114.34 12.9093 115.716 13.72 116.612 14.872C117.529 16.0027 117.988 17.7307 117.988 20.056C117.988 22.424 117.252 24.28 115.78 25.624C114.329 26.968 112.377 27.64 109.924 27.64ZM127.301 27.32C125.893 27.32 124.762 26.968 123.909 26.264C123.077 25.56 122.661 24.44 122.661 22.904V11.384L120.389 11.064V10.424H122.661V7.768L125.861 6.968V10.424H130.021V11.064L125.861 11.384V22.84C125.861 25.1013 126.671 26.232 128.293 26.232C128.634 26.232 128.954 26.1787 129.253 26.072C129.573 25.9653 129.818 25.8587 129.989 25.752C130.181 25.6453 130.298 25.5707 130.341 25.528L130.757 26.04C129.797 26.8933 128.645 27.32 127.301 27.32ZM139.602 27.32C138.066 27.32 136.668 26.968 135.41 26.264C134.151 25.5387 133.148 24.5253 132.402 23.224C131.676 21.9013 131.314 20.3973 131.314 18.712C131.314 17.0267 131.676 15.5333 132.402 14.232C133.148 12.9307 134.151 11.928 135.41 11.224C136.668 10.4987 138.066 10.136 139.602 10.136C141.138 10.136 142.535 10.4987 143.794 11.224C145.052 11.928 146.044 12.9307 146.77 14.232C147.516 15.5333 147.89 17.0267 147.89 18.712C147.89 20.3973 147.516 21.9013 146.77 23.224C146.044 24.5253 145.052 25.5387 143.794 26.264C142.535 26.968 141.138 27.32 139.602 27.32ZM139.602 26.616C141.18 26.616 142.364 26.04 143.154 24.888C143.964 23.736 144.37 22.2107 144.37 20.312V17.112C144.37 15.2133 143.964 13.6987 143.154 12.568C142.364 11.416 141.18 10.84 139.602 10.84C138.023 10.84 136.828 11.416 136.018 12.568C135.228 13.6987 134.834 15.2133 134.834 17.112V20.312C134.834 22.2107 135.228 23.736 136.018 24.888C136.828 26.04 138.023 26.616 139.602 26.616ZM150.114 26.36L152.354 26.04V11.384L150.114 11.064V10.424H155.554V12.888C156.898 11.0533 158.413 10.136 160.098 10.136C160.909 10.136 161.623 10.3493 162.242 10.776C162.861 11.1813 163.17 11.768 163.17 12.536C163.17 13.0907 162.989 13.56 162.626 13.944C162.263 14.3067 161.783 14.488 161.186 14.488C160.503 14.488 159.949 14.2213 159.522 13.688C159.757 13.3893 159.874 13.0693 159.874 12.728C159.874 12.3653 159.746 12.0773 159.49 11.864C159.255 11.6293 158.935 11.512 158.53 11.512C158.082 11.512 157.623 11.7253 157.154 12.152C156.685 12.5573 156.151 13.1973 155.554 14.072V26.04L158.114 26.36V27H150.114V26.36ZM172.918 27.32C171.339 27.32 169.91 26.968 168.63 26.264C167.35 25.5387 166.336 24.5253 165.59 23.224C164.843 21.9227 164.47 20.4187 164.47 18.712C164.47 17.0053 164.832 15.512 165.558 14.232C166.304 12.9307 167.296 11.928 168.534 11.224C169.792 10.4987 171.19 10.136 172.726 10.136C174.07 10.136 175.275 10.4347 176.342 11.032C177.408 11.6293 178.24 12.4613 178.838 13.528C179.435 14.5733 179.744 15.7787 179.766 17.144H167.99V20.312C167.99 22.1893 168.406 23.7147 169.238 24.888C170.091 26.04 171.318 26.616 172.918 26.616C174.39 26.616 175.691 26.2 176.822 25.368C177.952 24.536 178.646 23.4587 178.902 22.136H179.638C179.339 23.7147 178.582 24.9733 177.366 25.912C176.15 26.8507 174.667 27.32 172.918 27.32ZM176.246 16.344C176.246 14.488 175.958 13.112 175.382 12.216C174.806 11.2987 173.91 10.84 172.694 10.84C171.264 10.84 170.155 11.3413 169.366 12.344C168.576 13.3467 168.128 14.68 168.022 16.344H176.246Z" fill="#303030"/>
</svg>
