<svg width="18" height="18" viewBox="0 0 18 18" fill="none" xmlns="http://www.w3.org/2000/svg">
<circle cx="9" cy="9" r="9" fill="#F0F0F0"/>
<path d="M8.25 10.4901H9.46875V10.4091C9.4858 9.42898 9.76705 8.99006 10.4915 8.54261C11.2543 8.08239 11.723 7.43466 11.723 6.47585C11.723 5.09091 10.6747 4.15341 9.1108 4.15341C7.67472 4.15341 6.52415 4.9929 6.46875 6.52699H7.7642C7.81534 5.62358 8.45881 5.22727 9.1108 5.22727C9.83523 5.22727 10.4233 5.70881 10.4233 6.46307C10.4233 7.09801 10.027 7.54545 9.51989 7.8608C8.72727 8.34659 8.25852 8.82812 8.25 10.4091V10.4901ZM8.89347 13.081C9.35795 13.081 9.74574 12.7017 9.74574 12.2287C9.74574 11.7642 9.35795 11.3807 8.89347 11.3807C8.42472 11.3807 8.04119 11.7642 8.04119 12.2287C8.04119 12.7017 8.42472 13.081 8.89347 13.081Z" fill="#303030"/>
</svg>
