<svg width="20" height="20" viewBox="0 0 20 20" fill="none" xmlns="http://www.w3.org/2000/svg">
<path fill-rule="evenodd" clip-rule="evenodd" d="M13.2 8.5C13.2 11.0957 11.0957 13.2 8.5 13.2C5.90426 13.2 3.8 11.0957 3.8 8.5C3.8 5.90426 5.90426 3.8 8.5 3.8C11.0957 3.8 13.2 5.90426 13.2 8.5ZM12.062 13.938C11.039 14.6094 9.81512 15 8.5 15C4.91015 15 2 12.0899 2 8.5C2 4.91015 4.91015 2 8.5 2C12.0899 2 15 4.91015 15 8.5C15 10.1561 14.3806 11.6676 13.3609 12.8153L17.2728 16.7272L16 18L12 14L12.062 13.938Z" fill="#303030"/>
</svg>
